<mxfile host="www.draw.io" modified="2019-11-27T12:43:21.674Z" agent="Mozilla/5.0 (Windows NT 10.0; Win64; x64) AppleWebKit/537.36 (KHTML, like Gecko) Chrome/78.0.3904.97 Safari/537.36" etag="1VwEJazGYe3ZW2_HRZ7Q" version="12.2.9" type="github" pages="1">
  <diagram id="IWoXafulItEd8QuLjbcS" name="Page-1">
    <mxGraphModel dx="1929" dy="533" grid="1" gridSize="10" guides="1" tooltips="1" connect="1" arrows="1" fold="1" page="1" pageScale="1" pageWidth="827" pageHeight="1169" math="0" shadow="0">
      <root>
        <mxCell id="0"/>
        <mxCell id="1" parent="0"/>
        <mxCell id="Dth5LIdZDo002Ucan2Yi-1" style="edgeStyle=none;rounded=0;orthogonalLoop=1;jettySize=auto;html=1;exitX=0.5;exitY=1;exitDx=0;exitDy=0;entryX=0.5;entryY=0;entryDx=0;entryDy=0;" edge="1" parent="1" target="Dth5LIdZDo002Ucan2Yi-9">
          <mxGeometry relative="1" as="geometry">
            <mxPoint x="395" y="90" as="sourcePoint"/>
          </mxGeometry>
        </mxCell>
        <mxCell id="Dth5LIdZDo002Ucan2Yi-2" style="edgeStyle=none;rounded=0;orthogonalLoop=1;jettySize=auto;html=1;exitX=0.5;exitY=1;exitDx=0;exitDy=0;entryX=0.5;entryY=0;entryDx=0;entryDy=0;" edge="1" parent="1" target="Dth5LIdZDo002Ucan2Yi-10">
          <mxGeometry relative="1" as="geometry">
            <mxPoint x="395" y="90" as="sourcePoint"/>
          </mxGeometry>
        </mxCell>
        <mxCell id="Dth5LIdZDo002Ucan2Yi-3" style="edgeStyle=none;rounded=0;orthogonalLoop=1;jettySize=auto;html=1;exitX=0.5;exitY=1;exitDx=0;exitDy=0;entryX=0.5;entryY=0;entryDx=0;entryDy=0;" edge="1" parent="1" target="Dth5LIdZDo002Ucan2Yi-11">
          <mxGeometry relative="1" as="geometry">
            <mxPoint x="395" y="90" as="sourcePoint"/>
          </mxGeometry>
        </mxCell>
        <mxCell id="Dth5LIdZDo002Ucan2Yi-4" style="edgeStyle=none;rounded=0;orthogonalLoop=1;jettySize=auto;html=1;exitX=0.5;exitY=1;exitDx=0;exitDy=0;" edge="1" parent="1" target="Dth5LIdZDo002Ucan2Yi-12">
          <mxGeometry relative="1" as="geometry">
            <mxPoint x="395" y="90" as="sourcePoint"/>
          </mxGeometry>
        </mxCell>
        <mxCell id="Dth5LIdZDo002Ucan2Yi-5" style="edgeStyle=none;rounded=0;orthogonalLoop=1;jettySize=auto;html=1;exitX=0.5;exitY=1;exitDx=0;exitDy=0;entryX=0.5;entryY=0;entryDx=0;entryDy=0;" edge="1" parent="1" target="Dth5LIdZDo002Ucan2Yi-14">
          <mxGeometry relative="1" as="geometry">
            <mxPoint x="395" y="90" as="sourcePoint"/>
          </mxGeometry>
        </mxCell>
        <mxCell id="Dth5LIdZDo002Ucan2Yi-6" style="edgeStyle=none;rounded=0;orthogonalLoop=1;jettySize=auto;html=1;exitX=0.5;exitY=1;exitDx=0;exitDy=0;entryX=0.5;entryY=0;entryDx=0;entryDy=0;" edge="1" parent="1" target="Dth5LIdZDo002Ucan2Yi-15">
          <mxGeometry relative="1" as="geometry">
            <mxPoint x="395" y="90" as="sourcePoint"/>
          </mxGeometry>
        </mxCell>
        <mxCell id="Dth5LIdZDo002Ucan2Yi-7" style="edgeStyle=none;rounded=0;orthogonalLoop=1;jettySize=auto;html=1;exitX=0.5;exitY=1;exitDx=0;exitDy=0;entryX=0.5;entryY=0;entryDx=0;entryDy=0;" edge="1" parent="1" target="Dth5LIdZDo002Ucan2Yi-16">
          <mxGeometry relative="1" as="geometry">
            <mxPoint x="395" y="90" as="sourcePoint"/>
          </mxGeometry>
        </mxCell>
        <mxCell id="Dth5LIdZDo002Ucan2Yi-8" value="" style="group" vertex="1" connectable="0" parent="1">
          <mxGeometry x="40" y="190" width="710" height="40" as="geometry"/>
        </mxCell>
        <mxCell id="Dth5LIdZDo002Ucan2Yi-9" value="arpa" style="ellipse;whiteSpace=wrap;html=1;" vertex="1" parent="Dth5LIdZDo002Ucan2Yi-8">
          <mxGeometry width="70" height="40" as="geometry"/>
        </mxCell>
        <mxCell id="Dth5LIdZDo002Ucan2Yi-10" value="com" style="ellipse;whiteSpace=wrap;html=1;" vertex="1" parent="Dth5LIdZDo002Ucan2Yi-8">
          <mxGeometry x="110" width="70" height="40" as="geometry"/>
        </mxCell>
        <mxCell id="Dth5LIdZDo002Ucan2Yi-11" value="org" style="ellipse;whiteSpace=wrap;html=1;" vertex="1" parent="Dth5LIdZDo002Ucan2Yi-8">
          <mxGeometry x="220" width="70" height="40" as="geometry"/>
        </mxCell>
        <mxCell id="Dth5LIdZDo002Ucan2Yi-12" value="edu" style="ellipse;whiteSpace=wrap;html=1;" vertex="1" parent="Dth5LIdZDo002Ucan2Yi-8">
          <mxGeometry x="330" width="70" height="40" as="geometry"/>
        </mxCell>
        <mxCell id="Dth5LIdZDo002Ucan2Yi-13" value="&lt;font style=&quot;font-size: 18px&quot;&gt;···&lt;/font&gt;" style="text;html=1;strokeColor=none;fillColor=none;align=center;verticalAlign=middle;whiteSpace=wrap;rounded=0;" vertex="1" parent="Dth5LIdZDo002Ucan2Yi-8">
          <mxGeometry x="400" y="10" width="40" height="20" as="geometry"/>
        </mxCell>
        <mxCell id="Dth5LIdZDo002Ucan2Yi-14" value="jp" style="ellipse;whiteSpace=wrap;html=1;" vertex="1" parent="Dth5LIdZDo002Ucan2Yi-8">
          <mxGeometry x="440" width="70" height="40" as="geometry"/>
        </mxCell>
        <mxCell id="Dth5LIdZDo002Ucan2Yi-15" value="uk" style="ellipse;whiteSpace=wrap;html=1;" vertex="1" parent="Dth5LIdZDo002Ucan2Yi-8">
          <mxGeometry x="540" width="70" height="40" as="geometry"/>
        </mxCell>
        <mxCell id="Dth5LIdZDo002Ucan2Yi-16" value="cn" style="ellipse;whiteSpace=wrap;html=1;" vertex="1" parent="Dth5LIdZDo002Ucan2Yi-8">
          <mxGeometry x="640" width="70" height="40" as="geometry"/>
        </mxCell>
        <mxCell id="Dth5LIdZDo002Ucan2Yi-17" value="in-addr" style="ellipse;whiteSpace=wrap;html=1;" vertex="1" parent="1">
          <mxGeometry x="-17" y="300" width="70" height="40" as="geometry"/>
        </mxCell>
        <mxCell id="Dth5LIdZDo002Ucan2Yi-18" style="edgeStyle=none;rounded=0;orthogonalLoop=1;jettySize=auto;html=1;exitX=0.5;exitY=1;exitDx=0;exitDy=0;entryX=0.5;entryY=0;entryDx=0;entryDy=0;" edge="1" parent="1" source="Dth5LIdZDo002Ucan2Yi-19" target="Dth5LIdZDo002Ucan2Yi-36">
          <mxGeometry relative="1" as="geometry"/>
        </mxCell>
        <mxCell id="Dth5LIdZDo002Ucan2Yi-19" value="google" style="ellipse;whiteSpace=wrap;html=1;" vertex="1" parent="1">
          <mxGeometry x="93" y="300" width="70" height="40" as="geometry"/>
        </mxCell>
        <mxCell id="Dth5LIdZDo002Ucan2Yi-20" value="baidu" style="ellipse;whiteSpace=wrap;html=1;" vertex="1" parent="1">
          <mxGeometry x="203" y="300" width="70" height="40" as="geometry"/>
        </mxCell>
        <mxCell id="Dth5LIdZDo002Ucan2Yi-21" style="edgeStyle=none;rounded=0;orthogonalLoop=1;jettySize=auto;html=1;exitX=0.5;exitY=1;exitDx=0;exitDy=0;entryX=0.5;entryY=0;entryDx=0;entryDy=0;" edge="1" parent="1" source="Dth5LIdZDo002Ucan2Yi-22" target="Dth5LIdZDo002Ucan2Yi-38">
          <mxGeometry relative="1" as="geometry"/>
        </mxCell>
        <mxCell id="Dth5LIdZDo002Ucan2Yi-22" value="colorado" style="ellipse;whiteSpace=wrap;html=1;" vertex="1" parent="1">
          <mxGeometry x="313" y="300" width="70" height="40" as="geometry"/>
        </mxCell>
        <mxCell id="Dth5LIdZDo002Ucan2Yi-23" value="&lt;font style=&quot;font-size: 18px&quot;&gt;···&lt;/font&gt;" style="text;html=1;strokeColor=none;fillColor=none;align=center;verticalAlign=middle;whiteSpace=wrap;rounded=0;" vertex="1" parent="1">
          <mxGeometry x="383" y="310" width="40" height="20" as="geometry"/>
        </mxCell>
        <mxCell id="Dth5LIdZDo002Ucan2Yi-24" style="edgeStyle=none;rounded=0;orthogonalLoop=1;jettySize=auto;html=1;exitX=0.5;exitY=1;exitDx=0;exitDy=0;entryX=0.5;entryY=0;entryDx=0;entryDy=0;" edge="1" parent="1" source="Dth5LIdZDo002Ucan2Yi-25" target="Dth5LIdZDo002Ucan2Yi-39">
          <mxGeometry relative="1" as="geometry">
            <mxPoint x="415" y="410" as="targetPoint"/>
          </mxGeometry>
        </mxCell>
        <mxCell id="Dth5LIdZDo002Ucan2Yi-25" value="berkeley" style="ellipse;whiteSpace=wrap;html=1;" vertex="1" parent="1">
          <mxGeometry x="423" y="300" width="70" height="40" as="geometry"/>
        </mxCell>
        <mxCell id="Dth5LIdZDo002Ucan2Yi-26" style="edgeStyle=none;rounded=0;orthogonalLoop=1;jettySize=auto;html=1;exitX=0.5;exitY=1;exitDx=0;exitDy=0;entryX=0.5;entryY=0;entryDx=0;entryDy=0;" edge="1" parent="1" source="Dth5LIdZDo002Ucan2Yi-27" target="Dth5LIdZDo002Ucan2Yi-41">
          <mxGeometry relative="1" as="geometry"/>
        </mxCell>
        <mxCell id="Dth5LIdZDo002Ucan2Yi-27" value="ac" style="ellipse;whiteSpace=wrap;html=1;" vertex="1" parent="1">
          <mxGeometry x="523" y="300" width="70" height="40" as="geometry"/>
        </mxCell>
        <mxCell id="Dth5LIdZDo002Ucan2Yi-28" value="oce" style="ellipse;whiteSpace=wrap;html=1;" vertex="1" parent="1">
          <mxGeometry x="623" y="300" width="70" height="40" as="geometry"/>
        </mxCell>
        <mxCell id="Dth5LIdZDo002Ucan2Yi-29" style="rounded=0;orthogonalLoop=1;jettySize=auto;html=1;exitX=0.5;exitY=1;exitDx=0;exitDy=0;entryX=0.5;entryY=0;entryDx=0;entryDy=0;" edge="1" parent="1" source="Dth5LIdZDo002Ucan2Yi-9" target="Dth5LIdZDo002Ucan2Yi-17">
          <mxGeometry relative="1" as="geometry"/>
        </mxCell>
        <mxCell id="Dth5LIdZDo002Ucan2Yi-30" style="edgeStyle=none;rounded=0;orthogonalLoop=1;jettySize=auto;html=1;exitX=0.5;exitY=1;exitDx=0;exitDy=0;entryX=0.5;entryY=0;entryDx=0;entryDy=0;" edge="1" parent="1" source="Dth5LIdZDo002Ucan2Yi-10" target="Dth5LIdZDo002Ucan2Yi-19">
          <mxGeometry relative="1" as="geometry"/>
        </mxCell>
        <mxCell id="Dth5LIdZDo002Ucan2Yi-31" style="edgeStyle=none;rounded=0;orthogonalLoop=1;jettySize=auto;html=1;exitX=0.5;exitY=1;exitDx=0;exitDy=0;entryX=0.5;entryY=0;entryDx=0;entryDy=0;" edge="1" parent="1" source="Dth5LIdZDo002Ucan2Yi-10" target="Dth5LIdZDo002Ucan2Yi-20">
          <mxGeometry relative="1" as="geometry"/>
        </mxCell>
        <mxCell id="Dth5LIdZDo002Ucan2Yi-32" style="edgeStyle=none;rounded=0;orthogonalLoop=1;jettySize=auto;html=1;exitX=0.5;exitY=1;exitDx=0;exitDy=0;entryX=0.5;entryY=0;entryDx=0;entryDy=0;" edge="1" parent="1" source="Dth5LIdZDo002Ucan2Yi-12" target="Dth5LIdZDo002Ucan2Yi-22">
          <mxGeometry relative="1" as="geometry"/>
        </mxCell>
        <mxCell id="Dth5LIdZDo002Ucan2Yi-33" style="edgeStyle=none;rounded=0;orthogonalLoop=1;jettySize=auto;html=1;exitX=0.5;exitY=1;exitDx=0;exitDy=0;entryX=0.5;entryY=0;entryDx=0;entryDy=0;" edge="1" parent="1" source="Dth5LIdZDo002Ucan2Yi-12" target="Dth5LIdZDo002Ucan2Yi-25">
          <mxGeometry relative="1" as="geometry"/>
        </mxCell>
        <mxCell id="Dth5LIdZDo002Ucan2Yi-34" style="edgeStyle=none;rounded=0;orthogonalLoop=1;jettySize=auto;html=1;exitX=0.5;exitY=1;exitDx=0;exitDy=0;entryX=0.5;entryY=0;entryDx=0;entryDy=0;" edge="1" parent="1" source="Dth5LIdZDo002Ucan2Yi-35" target="Dth5LIdZDo002Ucan2Yi-47">
          <mxGeometry relative="1" as="geometry"/>
        </mxCell>
        <mxCell id="Dth5LIdZDo002Ucan2Yi-35" value="vu" style="ellipse;whiteSpace=wrap;html=1;" vertex="1" parent="1">
          <mxGeometry x="723" y="300" width="70" height="40" as="geometry"/>
        </mxCell>
        <mxCell id="Dth5LIdZDo002Ucan2Yi-36" value="www" style="ellipse;whiteSpace=wrap;html=1;" vertex="1" parent="1">
          <mxGeometry x="50" y="410" width="70" height="40" as="geometry"/>
        </mxCell>
        <mxCell id="Dth5LIdZDo002Ucan2Yi-37" style="edgeStyle=none;rounded=0;orthogonalLoop=1;jettySize=auto;html=1;exitX=0.5;exitY=1;exitDx=0;exitDy=0;entryX=0.5;entryY=0;entryDx=0;entryDy=0;" edge="1" parent="1" source="Dth5LIdZDo002Ucan2Yi-38" target="Dth5LIdZDo002Ucan2Yi-42">
          <mxGeometry relative="1" as="geometry"/>
        </mxCell>
        <mxCell id="Dth5LIdZDo002Ucan2Yi-38" value="cs" style="ellipse;whiteSpace=wrap;html=1;" vertex="1" parent="1">
          <mxGeometry x="270" y="410" width="70" height="40" as="geometry"/>
        </mxCell>
        <mxCell id="Dth5LIdZDo002Ucan2Yi-39" value="cs" style="ellipse;whiteSpace=wrap;html=1;" vertex="1" parent="1">
          <mxGeometry x="480" y="410" width="70" height="40" as="geometry"/>
        </mxCell>
        <mxCell id="Dth5LIdZDo002Ucan2Yi-40" style="edgeStyle=none;rounded=0;orthogonalLoop=1;jettySize=auto;html=1;exitX=0.5;exitY=1;exitDx=0;exitDy=0;entryX=0.5;entryY=0;entryDx=0;entryDy=0;" edge="1" parent="1" source="Dth5LIdZDo002Ucan2Yi-41" target="Dth5LIdZDo002Ucan2Yi-44">
          <mxGeometry relative="1" as="geometry"/>
        </mxCell>
        <mxCell id="Dth5LIdZDo002Ucan2Yi-41" value="keio" style="ellipse;whiteSpace=wrap;html=1;" vertex="1" parent="1">
          <mxGeometry x="580" y="410" width="70" height="40" as="geometry"/>
        </mxCell>
        <mxCell id="Dth5LIdZDo002Ucan2Yi-42" value="www" style="ellipse;whiteSpace=wrap;html=1;" vertex="1" parent="1">
          <mxGeometry x="325" y="516" width="70" height="40" as="geometry"/>
        </mxCell>
        <mxCell id="Dth5LIdZDo002Ucan2Yi-43" style="edgeStyle=none;rounded=0;orthogonalLoop=1;jettySize=auto;html=1;exitX=0.5;exitY=1;exitDx=0;exitDy=0;entryX=0.5;entryY=0;entryDx=0;entryDy=0;" edge="1" parent="1" source="Dth5LIdZDo002Ucan2Yi-14" target="Dth5LIdZDo002Ucan2Yi-27">
          <mxGeometry relative="1" as="geometry"/>
        </mxCell>
        <mxCell id="Dth5LIdZDo002Ucan2Yi-44" value="cs" style="ellipse;whiteSpace=wrap;html=1;" vertex="1" parent="1">
          <mxGeometry x="523" y="516" width="70" height="40" as="geometry"/>
        </mxCell>
        <mxCell id="Dth5LIdZDo002Ucan2Yi-45" style="edgeStyle=none;rounded=0;orthogonalLoop=1;jettySize=auto;html=1;exitX=0.5;exitY=1;exitDx=0;exitDy=0;entryX=0.5;entryY=0;entryDx=0;entryDy=0;" edge="1" parent="1" source="Dth5LIdZDo002Ucan2Yi-16" target="Dth5LIdZDo002Ucan2Yi-28">
          <mxGeometry relative="1" as="geometry"/>
        </mxCell>
        <mxCell id="Dth5LIdZDo002Ucan2Yi-46" style="edgeStyle=none;rounded=0;orthogonalLoop=1;jettySize=auto;html=1;exitX=0.5;exitY=1;exitDx=0;exitDy=0;entryX=0.414;entryY=0.05;entryDx=0;entryDy=0;entryPerimeter=0;" edge="1" parent="1" source="Dth5LIdZDo002Ucan2Yi-16" target="Dth5LIdZDo002Ucan2Yi-35">
          <mxGeometry relative="1" as="geometry"/>
        </mxCell>
        <mxCell id="Dth5LIdZDo002Ucan2Yi-47" value="law" style="ellipse;whiteSpace=wrap;html=1;" vertex="1" parent="1">
          <mxGeometry x="688" y="410" width="70" height="40" as="geometry"/>
        </mxCell>
        <mxCell id="Dth5LIdZDo002Ucan2Yi-48" value="" style="endArrow=none;html=1;" edge="1" parent="1">
          <mxGeometry width="50" height="50" relative="1" as="geometry">
            <mxPoint x="-20" y="58" as="sourcePoint"/>
            <mxPoint x="-20" y="18" as="targetPoint"/>
          </mxGeometry>
        </mxCell>
        <mxCell id="Dth5LIdZDo002Ucan2Yi-49" value="" style="endArrow=none;html=1;" edge="1" parent="1">
          <mxGeometry width="50" height="50" relative="1" as="geometry">
            <mxPoint x="800" y="58" as="sourcePoint"/>
            <mxPoint x="800" y="18" as="targetPoint"/>
          </mxGeometry>
        </mxCell>
        <mxCell id="Dth5LIdZDo002Ucan2Yi-50" value="" style="endArrow=classic;startArrow=classic;html=1;" edge="1" parent="1">
          <mxGeometry width="50" height="50" relative="1" as="geometry">
            <mxPoint x="-20" y="38" as="sourcePoint"/>
            <mxPoint x="450" y="38" as="targetPoint"/>
          </mxGeometry>
        </mxCell>
        <mxCell id="Dth5LIdZDo002Ucan2Yi-51" value="" style="endArrow=none;html=1;" edge="1" parent="1">
          <mxGeometry width="50" height="50" relative="1" as="geometry">
            <mxPoint x="450" y="58" as="sourcePoint"/>
            <mxPoint x="450" y="18" as="targetPoint"/>
          </mxGeometry>
        </mxCell>
        <mxCell id="Dth5LIdZDo002Ucan2Yi-52" value="" style="endArrow=none;html=1;" edge="1" parent="1">
          <mxGeometry width="50" height="50" relative="1" as="geometry">
            <mxPoint x="470" y="58" as="sourcePoint"/>
            <mxPoint x="470" y="18" as="targetPoint"/>
          </mxGeometry>
        </mxCell>
        <mxCell id="Dth5LIdZDo002Ucan2Yi-53" value="" style="endArrow=classic;startArrow=classic;html=1;" edge="1" parent="1">
          <mxGeometry width="50" height="50" relative="1" as="geometry">
            <mxPoint x="470" y="38" as="sourcePoint"/>
            <mxPoint x="800" y="38" as="targetPoint"/>
          </mxGeometry>
        </mxCell>
        <mxCell id="Dth5LIdZDo002Ucan2Yi-54" value="Generic" style="text;html=1;strokeColor=none;fillColor=none;align=center;verticalAlign=middle;whiteSpace=wrap;rounded=0;" vertex="1" parent="1">
          <mxGeometry x="190" y="8" width="40" height="20" as="geometry"/>
        </mxCell>
        <mxCell id="Dth5LIdZDo002Ucan2Yi-55" value="Countries" style="text;html=1;strokeColor=none;fillColor=none;align=center;verticalAlign=middle;whiteSpace=wrap;rounded=0;" vertex="1" parent="1">
          <mxGeometry x="615" y="8" width="40" height="20" as="geometry"/>
        </mxCell>
        <mxCell id="Dth5LIdZDo002Ucan2Yi-56" value="&lt;font style=&quot;font-size: 24px&quot;&gt;·&lt;/font&gt;" style="ellipse;whiteSpace=wrap;html=1;aspect=fixed;" vertex="1" parent="1">
          <mxGeometry x="375" y="50" width="40" height="40" as="geometry"/>
        </mxCell>
        <mxCell id="Dth5LIdZDo002Ucan2Yi-59" value="" style="endArrow=none;dashed=1;html=1;" edge="1" parent="1">
          <mxGeometry width="50" height="50" relative="1" as="geometry">
            <mxPoint x="-20" y="130" as="sourcePoint"/>
            <mxPoint x="910" y="130" as="targetPoint"/>
          </mxGeometry>
        </mxCell>
        <mxCell id="Dth5LIdZDo002Ucan2Yi-60" value="" style="endArrow=none;dashed=1;html=1;" edge="1" parent="1">
          <mxGeometry width="50" height="50" relative="1" as="geometry">
            <mxPoint x="-20" y="259.5" as="sourcePoint"/>
            <mxPoint x="910" y="260" as="targetPoint"/>
          </mxGeometry>
        </mxCell>
        <mxCell id="Dth5LIdZDo002Ucan2Yi-61" value="" style="endArrow=none;dashed=1;html=1;" edge="1" parent="1">
          <mxGeometry width="50" height="50" relative="1" as="geometry">
            <mxPoint x="-20" y="380" as="sourcePoint"/>
            <mxPoint x="910" y="380" as="targetPoint"/>
          </mxGeometry>
        </mxCell>
        <mxCell id="Dth5LIdZDo002Ucan2Yi-62" value="" style="endArrow=none;dashed=1;html=1;" edge="1" parent="1">
          <mxGeometry width="50" height="50" relative="1" as="geometry">
            <mxPoint x="-20" y="500" as="sourcePoint"/>
            <mxPoint x="910" y="500" as="targetPoint"/>
          </mxGeometry>
        </mxCell>
        <mxCell id="Dth5LIdZDo002Ucan2Yi-63" value="根域名服务器" style="text;html=1;strokeColor=none;fillColor=none;align=center;verticalAlign=middle;whiteSpace=wrap;rounded=0;" vertex="1" parent="1">
          <mxGeometry x="810" y="80" width="80" height="20" as="geometry"/>
        </mxCell>
        <mxCell id="Dth5LIdZDo002Ucan2Yi-64" value="顶级域名服务器" style="text;html=1;strokeColor=none;fillColor=none;align=center;verticalAlign=middle;whiteSpace=wrap;rounded=0;" vertex="1" parent="1">
          <mxGeometry x="810" y="190" width="87" height="20" as="geometry"/>
        </mxCell>
        <mxCell id="Dth5LIdZDo002Ucan2Yi-65" value="次级域名服务器" style="text;html=1;strokeColor=none;fillColor=none;align=center;verticalAlign=middle;whiteSpace=wrap;rounded=0;" vertex="1" parent="1">
          <mxGeometry x="810" y="310" width="87" height="20" as="geometry"/>
        </mxCell>
        <mxCell id="Dth5LIdZDo002Ucan2Yi-68" value="权威域名服务器" style="text;html=1;strokeColor=none;fillColor=none;align=center;verticalAlign=middle;whiteSpace=wrap;rounded=0;" vertex="1" parent="1">
          <mxGeometry x="810" y="430" width="87" height="20" as="geometry"/>
        </mxCell>
        <mxCell id="Dth5LIdZDo002Ucan2Yi-69" value="主机" style="text;html=1;strokeColor=none;fillColor=none;align=center;verticalAlign=middle;whiteSpace=wrap;rounded=0;" vertex="1" parent="1">
          <mxGeometry x="810" y="526" width="87" height="20" as="geometry"/>
        </mxCell>
      </root>
    </mxGraphModel>
  </diagram>
</mxfile>
